<svg width="573" height="90" viewBox="0 0 573 90" fill="none" xmlns="http://www.w3.org/2000/svg">
<path d="M0 89.9999C9.27438e-07 68.7826 8.42855 48.4343 23.4315 33.4314C38.4344 18.4285 58.7827 9.99992 80 9.99992L80 89.9999L0 89.9999Z" fill="#4F46E5"/>
<path d="M90 39.9999C103.261 39.9999 115.979 45.2677 125.355 54.6446C134.732 64.0214 140 76.7391 140 89.9999H90V39.9999Z" fill="#0D093F"/>
<path d="M541.444 89.556C528.81 89.556 521.41 82.9009 521.41 72.1924C521.41 61.3635 529.472 54.6255 543.309 53.5427L561.838 52.0988V50.4143C561.838 40.548 555.942 37.0587 548.001 37.0587C538.496 37.0587 533.081 41.27 533.081 48.3689H523.215C523.215 36.0962 533.322 28.0347 548.482 28.0347C563.041 28.0347 572.907 35.7352 572.907 51.6175V89.556H563.282L562.079 79.0507C559.071 85.7886 550.949 89.556 541.444 89.556ZM544.752 81.2164C555.461 81.2164 561.958 74.2378 561.958 63.1683V60.04L546.918 61.2432C536.932 62.2058 532.841 66.056 532.841 71.8314C532.841 78.0881 537.413 81.2164 544.752 81.2164Z" fill="#0D093F"/>
<path d="M513.197 89.9999H501.887V1.44385H513.197V89.9999Z" fill="#0D093F"/>
<path d="M493.888 89.9999H482.578V1.44385H493.888V89.9999Z" fill="#0D093F"/>
<path d="M447.264 89.556C429.938 89.556 418.026 77.0426 418.026 58.7539C418.026 40.3448 429.697 27.5908 446.782 27.5908C463.507 27.5908 474.456 39.1416 474.456 56.5881V60.7993L428.975 60.9197C429.817 73.3127 436.315 80.171 447.504 80.171C456.288 80.171 462.063 76.5614 463.988 69.8234H474.577C471.689 82.4571 461.823 89.556 447.264 89.556ZM446.782 37.0962C436.916 37.0962 430.659 42.9919 429.216 53.3395H463.146C463.146 43.5935 456.769 37.0962 446.782 37.0962Z" fill="#0D093F"/>
<path d="M418.026 30.238V40.5856H412.972C402.264 40.5856 395.646 47.0829 395.646 58.3931V89.5562H384.336V30.8396H394.924L395.646 39.7434C398.053 33.607 403.948 29.5161 412.01 29.5161C414.055 29.5161 415.74 29.7568 418.026 30.238Z" fill="#0D093F"/>
<path d="M326.884 89.5561H316.656V0H327.966V39.8262C331.817 32.1256 339.758 28.0347 349.383 28.0347C366.228 28.0347 376.335 41.27 376.335 59.4385C376.335 77.2459 365.747 89.5561 348.662 89.5561C339.397 89.5561 331.576 85.909 327.726 77.8475L326.884 89.5561ZM328.087 58.9572C328.087 71.2299 335.065 79.7727 346.616 79.7727C358.167 79.7727 365.025 71.1096 365.025 58.9572C365.025 46.9251 358.167 38.262 346.616 38.262C335.065 38.262 328.087 46.9251 328.087 58.9572Z" fill="#0D093F"/>
<path d="M231.892 89.556H220.582V30.7192H230.689L231.772 38.4197C234.78 32.8849 241.037 29.0347 249.339 29.0347C258.483 29.0347 264.98 33.6068 267.988 40.9464C270.756 33.6068 277.855 29.0347 286.999 29.0347C300.475 29.0347 308.657 37.4571 308.657 51.0534V89.556H297.587V53.8207C297.587 44.556 292.414 39.2619 284.472 39.2619C275.93 39.2619 270.275 45.278 270.275 54.663V89.556H259.085V53.7004C259.085 44.4357 254.031 39.3823 246.09 39.3823C237.547 39.3823 231.892 45.278 231.892 54.663V89.556Z" fill="#0D093F"/>
<path d="M201.39 29.7194H212.58V89.5562H202.473L201.27 79.6525C197.901 85.7888 189.961 89.5562 181.298 89.5562C167.582 89.5562 160 80.7354 160 66.2969V29.7194H171.31V62.5669C171.31 75.2006 176.725 80.0134 185.388 80.0134C195.735 80.0134 201.39 73.3958 201.39 60.7621V29.7194Z" fill="#0D093F"/>
</svg>
